:SAMPLES-PER-SECOND 30
:FULLY-SPECIFIED
:DEGREES
787
root  -60.8608 40.1365 1.38822 -170.073 -78.3072 165.514
RightUpLeg  -13.2512 2.36839 -7.64636
RightLeg  47.0445 -4.54894 -5.54757
RightFoot  -3.62833 -0.259622 3.47896
RightToes  -4.65661e-009 0 -3.6325e-017
Spine  3.32977 1.70195 0.900945
Spine1  9.20691 2.84647 -6.21695
HEad  -17.6753 6.2719 -7.59083
LeftShoulder1  -0.0891167 3.7442 -31.016
LeftArm  1.17318 -4.47595 -41.9481
LeftForeArm  32.0442 -12.7345 -8.00582
LeftHand  -0.0721652 7.82423 -1.30302
RightShoulder  -0.60135 -5.21946 28.249
RightArm  10.7116 11.9004 47.9473
RightForeArm  6.40348 16.0987 4.79202
RightHand  -0.338067 7.45931 -3.41047
LeftUpLeg  -2.65527 6.55913 -3.4244
LeftLeg  13.9696 6.83955 0.0654248
LeftFoot  -7.37886 -0.151484 5.65902
LeftToes  9.86798e-010 -1.28139e-010 1.4132e-011
788
root  -61.3335 40.1838 1.44589 -170.03 -79.2072 165.947
RightUpLeg  -14.9541 3.69111 -6.15664
RightLeg  40.9401 -4.34748 -4.30543
RightFoot  -3.8949 -0.291278 4.08196
RightToes  -4.65661e-009 0 -3.6325e-017
Spine  3.00174 1.53252 0.54293
Spine1  9.26066 2.66538 -5.81231
HEad  -17.9904 5.72099 -7.56516
LeftShoulder1  -0.0839061 3.72528 -31.3508
LeftArm  3.14706 -7.54533 -42.2302
LeftForeArm  29.3346 -14.7968 -7.23546
LeftHand  -0.0494659 7.40418 -0.470968
RightShoulder  -0.462412 -4.87148 26.9634
RightArm  13.0012 13.6073 48.9902
RightForeArm  6.97415 20.974 4.45103
RightHand  -0.387525 7.96746 -3.7339
LeftUpLeg  -2.13161 6.45214 -3.35751
LeftLeg  13.3332 6.1136 -0.152672
LeftFoot  -7.73435 -0.129967 5.60138
LeftToes  9.86798e-010 -1.28139e-010 1.4132e-011
789
root  -61.8219 40.2415 1.50308 -170.134 -80.4541 166.201
RightUpLeg  -15.2191 4.1557 -4.93309
RightLeg  32.4122 -4.43911 -3.26028
RightFoot  -4.01796 -0.38197 5.53662
RightToes  -4.65661e-009 0 -3.6325e-017
Spine  3.28267 1.12164 1.42356
Spine1  8.9699 2.68776 -7.0758
HEad  -18.6007 5.15158 -6.96943
LeftShoulder1  0.0610704 3.33671 -30.0628
LeftArm  3.76137 -8.80862 -43.772
LeftForeArm  26.8774 -17.7201 -5.55385
LeftHand  -0.0352768 6.56583 0.0132086
RightShoulder  -0.449937 -4.83009 27.0221
RightArm  13.9467 15.3485 49.0441
RightForeArm  9.73667 25.3085 4.876
RightHand  -0.432679 8.43165 -4.01038
LeftUpLeg  -1.06201 6.20177 -3.29642
LeftLeg  12.3631 5.06863 -0.222014
LeftFoot  -8.00816 -0.110176 5.44154
LeftToes  9.86798e-010 -1.28139e-010 1.4132e-011
790
root  -62.3609 40.2972 1.52955 -169.522 -81.8914 165.886
RightUpLeg  -14.9805 3.75305 -3.91995
RightLeg  22.8114 -4.16819 -2.11381
RightFoot  -2.96693 -0.418937 5.43416
RightToes  -4.65661e-009 0 -3.6325e-017
Spine  2.83426 0.947711 1.80273
Spine1  9.48747 2.6555 -7.08518
HEad  -18.9995 3.98234 -6.7845
LeftShoulder1  0.13616 3.12695 -30.0926
LeftArm  6.36255 -10.7621 -44.215
LeftForeArm  23.0731 -20.5034 -4.50306
LeftHand  -0.031054 6.18674 0.428661
RightShoulder  -0.438463 -4.81082 26.6419
RightArm  13.1255 16.6006 48.8468
RightForeArm  12.9454 29.0941 5.60404
RightHand  -0.483016 8.11196 -4.51817
LeftUpLeg  -0.0839157 6.10326 -3.1486
LeftLeg  11.4293 3.67097 -0.446185
LeftFoot  -8.26065 -0.0993978 5.54663
LeftToes  9.86798e-010 -1.28139e-010 1.4132e-011
791
root  -62.9467 40.325 1.55234 -165.263 -83.1894 162.13
RightUpLeg  -14.8258 1.45991 -3.21275
RightLeg  13.5305 -1.65545 -0.980345
RightFoot  -1.7236 -0.511762 5.93861
RightToes  -4.65661e-009 0 -3.6325e-017
Spine  2.35791 0.733618 2.42516
Spine1  9.44848 2.76069 -8.00266
HEad  -19.1365 2.97347 -6.32281
LeftShoulder1  0.188187 2.97424 -29.3894
LeftArm  7.41699 -11.1977 -44.8867
LeftForeArm  21.6511 -23.8733 -3.94055
LeftHand  -0.0291997 5.76406 0.646913
RightShoulder  -0.423527 -4.77575 26.3482
RightArm  12.8184 17.1142 48.7417
RightForeArm  13.385 31.8003 6.2414
RightHand  -0.483692 8.88543 -4.311
LeftUpLeg  0.811717 5.87673 -3.41244
LeftLeg  10.3033 2.52251 -0.693059
LeftFoot  -8.50779 -0.0920474 5.79016
LeftToes  9.86798e-010 -1.28139e-010 1.4132e-011
792
root  -63.5856 40.36 1.5466 -158.828 -84.2117 155.761
RightUpLeg  -14.1252 -3.04487 -1.98781
RightLeg  5.55292 3.61277 -0.798494
RightFoot  -0.0923982 -0.628994 6.36389
RightToes  -4.65661e-009 0 -3.6325e-017
Spine  2.58565 0.815328 2.1675
Spine1  8.73275 2.71822 -7.52785
HEad  -18.6153 1.99522 -6.67318
LeftShoulder1  0.16443 3.04733 -29.8975
LeftArm  8.06474 -11.3419 -44.5042
LeftForeArm  22.7035 -27.0065 -4.58055
LeftHand  -0.0359467 5.55695 -0.660875
RightShoulder  -0.312974 -4.47213 25.1507
RightArm  12.5942 16.4643 48.7753
RightForeArm  14.0825 33.8861 6.73836
RightHand  -0.475009 9.05997 -4.19851
LeftUpLeg  2.40911 5.77296 -3.77357
LeftLeg  9.00538 1.64541 -0.818712
LeftFoot  -8.76883 -0.0726133 5.56878
LeftToes  9.86798e-010 -1.28139e-010 1.4132e-011
793
root  -64.2748 40.3173 1.51065 -149.724 -84.6868 146.578
RightUpLeg  -13.582 -4.04289 -1.95788
RightLeg  0.727259 4.96905 -0.91629
RightFoot  1.12486 -0.738243 6.79147
RightToes  -4.65661e-009 0 -3.6325e-017
Spine  2.04739 1.01687 2.59857
Spine1  9.25446 3.18059 -8.32814
HEad  -18.2799 0.800281 -6.54497
LeftShoulder1  0.159209 3.0607 -29.8489
LeftArm  9.42009 -11.3689 -44.1551
LeftForeArm  21.3557 -29.6592 -5.26822
LeftHand  -0.0293136 5.03796 1.66317
RightShoulder  -0.247696 -4.27424 24.71
RightArm  12.9596 16.1682 48.8181
RightForeArm  13.9915 34.7644 6.97901
RightHand  -0.51415 8.68762 -4.61224
LeftUpLeg  4.08317 5.7634 -4.20156
LeftLeg  8.05712 1.07086 -1.01397
LeftFoot  -9.6492 -0.0168973 5.08233
LeftToes  9.86798e-010 -1.28139e-010 1.4132e-011
794
root  -65.0176 40.2174 1.46081 -141.349 -84.8501 137.878
RightUpLeg  -13.5934 -4.30366 -2.18168
RightLeg  0.909741 3.68072 -0.783815
RightFoot  2.40917 -0.571023 5.01753
RightToes  -4.65661e-009 0 -3.6325e-017
Spine  1.62635 1.33413 3.39797
Spine1  9.69833 3.86835 -9.59964
HEad  -17.4457 -0.181644 -6.64659
LeftShoulder1  0.195457 2.95475 -29.5939
LeftArm  7.96309 -9.93829 -44.1974
LeftForeArm  25.1974 -32.6106 -5.76186
LeftHand  -0.0294418 5.03485 1.06513
RightShoulder  -0.3418 -4.55513 25.3468
RightArm  15.2165 16.5082 48.4809
RightForeArm  12.9546 33.9951 6.83535
RightHand  -0.517204 8.66575 -4.64431
LeftUpLeg  5.73246 5.73391 -4.6112
LeftLeg  7.98095 0.47518 -1.09666
LeftFoot  -10.9663 0.0501978 4.81173
LeftToes  9.86798e-010 -1.28139e-010 1.4132e-011
795
root  -65.8395 40.1306 1.46356 -142.393 -84.8448 138.071
RightUpLeg  -13.5443 -4.53248 -1.91756
RightLeg  4.19964 3.08251 -0.389204
RightFoot  6.359 -0.0419141 0.526575
RightToes  -4.65661e-009 0 -3.6325e-017
Spine  1.21101 1.65258 5.06361
Spine1  10.6655 4.35609 -10.0032
HEad  -16.6364 -0.909243 -7.26787
LeftShoulder1  0.0407131 3.39484 -31.1323
LeftArm  7.72332 -8.20831 -43.0699
LeftForeArm  26.2011 -34.6578 -6.22056
LeftHand  -0.0307305 4.74809 0.925686
RightShoulder  -0.19757 -4.13042 24.049
RightArm  17.9351 16.2163 49.5321
RightForeArm  11.8023 32.1041 6.41197
RightHand  -0.491575 8.52253 -4.47855
LeftUpLeg  8.11358 5.74441 -4.61404
LeftLeg  7.91434 0.582069 -0.802008
LeftFoot  -12.4765 0.118142 4.39536
LeftToes  9.86798e-010 -1.28139e-010 1.4132e-011
796
root  -66.6838 40.0072 1.44646 -143.61 -85.5401 138.615
RightUpLeg  -13.5715 -4.97795 -1.8201
RightLeg  7.76633 4.15093 0.310755
RightFoot  8.49586 0.21776 -0.935982
RightToes  -4.65661e-009 0 -3.6325e-017
Spine  0.921424 1.6607 7.21476
Spine1  11.1253 4.63952 -10.8475
HEad  -15.6202 -1.341 -7.59692
LeftShoulder1  -0.109613 3.79601 -31.4902
LeftArm  8.63311 -6.22546 -42.5259
LeftForeArm  25.78 -35.0275 -6.34354
LeftHand  -0.0283822 5.4894 0.75018
RightShoulder  -0.277161 -4.36317 24.8295
RightArm  22.0495 16.3032 49.7997
RightForeArm  10.7331 29.2574 5.76579
RightHand  -0.443611 8.84032 -3.99682
LeftUpLeg  9.54846 5.58702 -4.25637
LeftLeg  9.40212 0.365296 -0.21033
LeftFoot  -14.4094 0.193619 3.9708
LeftToes  9.86798e-010 -1.28139e-010 1.4132e-011
797
root  -67.5237 39.8775 1.44834 -155.012 -86.3195 149.098
RightUpLeg  -13.4917 -4.53142 -1.10636
RightLeg  12.5442 3.37277 0.547351
RightFoot  5.33709 0.196616 -1.09391
RightToes  -4.65661e-009 0 -3.6325e-017
Spine  1.7287 1.66435 10.2046
Spine1  10.601 4.98805 -11.922
HEad  -14.9082 -1.7233 -7.79167
LeftShoulder1  -0.148002 3.89613 -31.5531
LeftArm  9.14311 -2.95546 -42.5569
LeftForeArm  25.1786 -34.1256 -6.14393
LeftHand  -0.0260572 5.55629 1.62828
RightShoulder  -0.43516 -4.8109 26.4363
RightArm  27.4043 16.0118 49.1922
RightForeArm  8.34816 26.0301 5.1112
RightHand  -0.371837 7.83227 -3.63058
LeftUpLeg  10.7349 5.6184 -3.21688
LeftLeg  12.0066 0.246318 0.389836
LeftFoot  -16.2995 0.257801 3.70024
LeftToes  9.86798e-010 -1.28139e-010 1.4132e-011
798
root  -68.3728 39.7845 1.3815 -176.953 -86.9678 170.782
RightUpLeg  -13.1602 -3.70853 0.256912
RightLeg  15.3199 2.21665 0.382391
RightFoot  3.32547 0.245136 -1.73255
RightToes  -4.65661e-009 0 -3.6325e-017
Spine  1.29377 1.88078 12.37
Spine1  10.8851 5.05062 -10.9974
HEad  -14.2761 -2.16417 -8.36999
LeftShoulder1  -0.227458 4.09153 -32.572
LeftArm  9.73699 0.492047 -42.3139
LeftForeArm  24.4564 -31.8717 -5.62646
LeftHand  -0.0272744 5.63395 1.04666
RightShoulder  -0.417228 -4.75588 26.3881
RightArm  30.4596 14.4774 49.5582
RightForeArm  6.72845 21.9597 4.7902
RightHand  -0.3007 7.98764 -2.97971
LeftUpLeg  10.17 6.31646 -1.05004
LeftLeg  16.758 -1.00594 -0.0372461
LeftFoot  -17.6967 0.244748 2.52017
LeftToes  9.86798e-010 -1.28139e-010 1.4132e-011
799
root  -69.1886 39.7668 1.3043 150.363 -88.0264 -156.771
RightUpLeg  -12.1391 -4.35049 1.20291
RightLeg  16.8569 1.39176 0.248314
RightFoot  1.40782 0.263314 -2.25162
RightToes  -4.65661e-009 0 -3.6325e-017
Spine  0.707933 1.73132 13.1094
Spine1  11.1879 4.45282 -8.61112
HEad  -13.1385 -2.45621 -8.66578
LeftShoulder1  -0.296565 4.25374 -33.4138
LeftArm  11.3402 3.70816 -42.5622
LeftForeArm  21.6897 -27.4141 -4.64866
LeftHand  -0.024833 6.32815 1.04612
RightShoulder  -0.441292 -4.82141 26.5555
RightArm  27.8413 12.0996 49.5226
RightForeArm  9.37634 17.3278 6.14615
RightHand  -0.287761 7.05613 -3.0345
LeftUpLeg  8.3453 6.07197 0.909248
LeftLeg  23.3877 -3.05102 -1.14006
LeftFoot  -17.4271 0.0688595 -0.724627
LeftToes  9.86798e-010 -1.28139e-010 1.4132e-011
